<svg width="489" height="189" viewBox="0 0 489 189" fill="none" xmlns="http://www.w3.org/2000/svg">
<g filter="url(#filter0_b_974_37136)">
<path d="M0.485086 153.04V122.766L76.3906 3.18181H102.491V45.0852H87.044L39.1925 120.813V122.234H147.058V153.04H0.485086ZM87.7543 185V143.807L88.4645 130.401V3.18181H124.509V185H87.7543ZM243.81 188.995C228.54 188.936 215.401 185.178 204.392 177.72C193.443 170.263 185.009 159.461 179.09 145.316C173.231 131.171 170.331 114.155 170.39 94.2685C170.39 74.4413 173.32 57.5438 179.179 43.576C185.098 29.6082 193.532 18.9844 204.481 11.7045C215.49 4.36553 228.599 0.696016 243.81 0.696016C259.021 0.696016 272.101 4.36553 283.05 11.7045C294.058 19.0436 302.522 29.697 308.441 43.6648C314.359 57.5734 317.289 74.4413 317.23 94.2685C317.23 114.214 314.27 131.259 308.352 145.405C302.492 159.55 294.088 170.352 283.139 177.809C272.189 185.266 259.08 188.995 243.81 188.995ZM243.81 157.124C254.227 157.124 262.542 151.886 268.757 141.41C274.971 130.934 278.049 115.22 277.99 94.2685C277.99 80.4782 276.569 68.9962 273.728 59.8224C270.946 50.6487 266.981 43.7535 261.832 39.1371C256.742 34.5206 250.735 32.2124 243.81 32.2124C233.452 32.2124 225.166 37.3911 218.952 47.7486C212.737 58.1061 209.601 73.6127 209.541 94.2685C209.541 108.236 210.932 119.896 213.714 129.247C216.555 138.539 220.55 145.523 225.699 150.199C230.848 154.815 236.885 157.124 243.81 157.124ZM341.738 153.04V122.766L417.643 3.18181H443.744V45.0852H428.297L380.445 120.813V122.234H488.311V153.04H341.738ZM429.007 185V143.807L429.717 130.401V3.18181H465.761V185H429.007Z" fill="url(#paint0_linear_974_37136)"/>
<path d="M0.485085 153.04H-0.514915V154.04H0.485085V153.04ZM0.485085 122.766L-0.359195 122.23L-0.514915 122.476V122.766H0.485085ZM76.3906 3.18181V2.18181H75.8409L75.5463 2.64591L76.3906 3.18181ZM102.491 3.18181H103.491V2.18181H102.491V3.18181ZM102.491 45.0852V46.0852H103.491V45.0852H102.491ZM87.044 45.0852V44.0852H86.493L86.1987 44.551L87.044 45.0852ZM39.1925 120.813L38.3471 120.279L38.1925 120.524V120.813H39.1925ZM39.1925 122.234H38.1925V123.234H39.1925V122.234ZM147.058 122.234H148.058V121.234H147.058V122.234ZM147.058 153.04V154.04H148.058V153.04H147.058ZM87.7543 185H86.7543V186H87.7543V185ZM87.7543 143.807L86.7557 143.754L86.7543 143.78V143.807H87.7543ZM88.4645 130.401L89.4631 130.454L89.4645 130.428V130.401H88.4645ZM88.4645 3.18181V2.18181H87.4645V3.18181H88.4645ZM124.509 3.18181H125.509V2.18181H124.509V3.18181ZM124.509 185V186H125.509V185H124.509ZM1.48509 153.04V122.766H-0.514915V153.04H1.48509ZM1.32937 123.302L77.2349 3.71772L75.5463 2.64591L-0.359195 122.23L1.32937 123.302ZM76.3906 4.18181H102.491V2.18181H76.3906V4.18181ZM101.491 3.18181V45.0852H103.491V3.18181H101.491ZM102.491 44.0852H87.044V46.0852H102.491V44.0852ZM86.1987 44.551L38.3471 120.279L40.0378 121.347L87.8894 45.6194L86.1987 44.551ZM38.1925 120.813V122.234H40.1925V120.813H38.1925ZM39.1925 123.234H147.058V121.234H39.1925V123.234ZM146.058 122.234V153.04H148.058V122.234H146.058ZM147.058 152.04H0.485085V154.04H147.058V152.04ZM88.7543 185V143.807H86.7543V185H88.7543ZM88.7529 143.86L89.4631 130.454L87.4659 130.348L86.7557 143.754L88.7529 143.86ZM89.4645 130.401V3.18181H87.4645V130.401H89.4645ZM88.4645 4.18181H124.509V2.18181H88.4645V4.18181ZM123.509 3.18181V185H125.509V3.18181H123.509ZM124.509 184H87.7543V186H124.509V184ZM243.81 188.995L243.806 189.995H243.81V188.995ZM204.392 177.72L203.829 178.547L203.831 178.548L204.392 177.72ZM179.09 145.316L178.167 145.699L178.168 145.702L179.09 145.316ZM170.39 94.2685L171.39 94.2714V94.2685H170.39ZM179.179 43.576L178.258 43.1858L178.257 43.1891L179.179 43.576ZM204.481 11.7045L205.035 12.5373L205.036 12.5366L204.481 11.7045ZM283.05 11.7045L282.493 12.5352L282.495 12.5366L283.05 11.7045ZM308.441 43.6648L307.52 44.0549L307.52 44.0563L308.441 43.6648ZM317.23 94.2685L316.23 94.2655V94.2685H317.23ZM308.352 145.405L307.429 145.019L307.428 145.022L308.352 145.405ZM283.139 177.809L283.702 178.635L283.139 177.809ZM268.757 141.41L269.617 141.92L268.757 141.41ZM277.99 94.2685H276.99V94.2713L277.99 94.2685ZM273.728 59.8224L272.771 60.1126L272.773 60.1183L273.728 59.8224ZM261.832 39.1371L261.16 39.8778L261.164 39.8816L261.832 39.1371ZM218.952 47.7486L218.094 47.2341L218.952 47.7486ZM209.541 94.2685L208.541 94.2656V94.2685H209.541ZM213.714 129.247L212.755 129.532L212.758 129.54L213.714 129.247ZM225.699 150.199L225.027 150.939L225.032 150.943L225.699 150.199ZM243.814 187.995C228.712 187.937 215.774 184.222 204.953 176.892L203.831 178.548C215.028 186.133 228.368 189.935 243.806 189.995L243.814 187.995ZM204.955 176.894C194.19 169.562 185.869 158.926 180.013 144.93L178.168 145.702C184.149 159.997 192.696 170.964 203.829 178.547L204.955 176.894ZM180.014 144.933C174.218 130.941 171.331 114.063 171.39 94.2714L169.39 94.2655C169.331 114.246 172.244 131.401 178.167 145.699L180.014 144.933ZM171.39 94.2685C171.39 74.5351 174.307 57.7766 180.101 43.9628L178.257 43.1891C172.333 57.311 169.39 74.3475 169.39 94.2685H171.39ZM180.1 43.9661C185.954 30.1502 194.272 19.6928 205.035 12.5373L203.927 10.8718C192.791 18.276 184.241 29.0662 178.258 43.1858L180.1 43.9661ZM205.036 12.5366C215.856 5.32281 228.766 1.69601 243.81 1.69601V-0.303984C228.432 -0.303984 215.123 3.40825 203.926 10.8725L205.036 12.5366ZM243.81 1.69601C258.854 1.69601 271.733 5.32285 282.493 12.5352L283.607 10.8739C272.468 3.40821 259.188 -0.303984 243.81 -0.303984V1.69601ZM282.495 12.5366C293.318 19.752 301.666 30.2399 307.52 44.0549L309.361 43.2746C303.378 29.154 294.799 18.3351 283.605 10.8725L282.495 12.5366ZM307.52 44.0563C313.372 57.8078 316.289 74.5336 316.23 94.2655L318.23 94.2714C318.289 74.3489 315.346 57.3389 309.361 43.2732L307.52 44.0563ZM316.23 94.2685C316.23 114.12 313.284 131.027 307.429 145.019L309.274 145.791C315.257 131.492 318.23 114.309 318.23 94.2685H316.23ZM307.428 145.022C301.631 159.016 293.34 169.651 282.576 176.982L283.702 178.635C294.836 171.052 303.354 160.084 309.276 145.788L307.428 145.022ZM282.576 176.982C271.817 184.31 258.911 187.995 243.81 187.995V189.995C259.249 189.995 272.562 186.222 283.702 178.635L282.576 176.982ZM243.81 158.124C254.645 158.124 263.258 152.639 269.617 141.92L267.897 140.9C261.826 151.133 253.808 156.124 243.81 156.124V158.124ZM269.617 141.92C275.968 131.214 279.049 115.284 278.99 94.2656L276.99 94.2713C277.049 115.157 273.974 130.654 267.897 140.9L269.617 141.92ZM278.99 94.2685C278.99 80.4177 277.564 68.8279 274.683 59.5266L272.773 60.1183C275.574 69.1645 276.99 80.5387 276.99 94.2685H278.99ZM274.685 59.5323C271.87 50.2482 267.828 43.1695 262.499 38.3925L261.164 39.8816C266.134 44.3376 270.023 51.0492 272.771 60.1126L274.685 59.5323ZM262.504 38.3963C257.228 33.6116 250.981 31.2124 243.81 31.2124V33.2124C250.488 33.2124 256.256 35.4296 261.16 39.8778L262.504 38.3963ZM243.81 31.2124C233.037 31.2124 224.454 36.6346 218.094 47.2341L219.809 48.2631C225.879 38.1476 233.868 33.2124 243.81 33.2124V31.2124ZM218.094 47.2341C211.743 57.8203 208.601 73.5421 208.541 94.2656L210.541 94.2713C210.6 73.6832 213.732 58.3918 219.809 48.2631L218.094 47.2341ZM208.541 94.2685C208.541 108.295 209.937 120.058 212.756 129.532L214.672 128.962C211.927 119.734 210.541 108.178 210.541 94.2685H208.541ZM212.758 129.54C215.631 138.939 219.702 146.104 225.027 150.939L226.371 149.459C221.398 144.943 217.479 138.14 214.67 128.955L212.758 129.54ZM225.032 150.943C230.364 155.725 236.639 158.124 243.81 158.124V156.124C237.131 156.124 231.332 153.906 226.367 149.454L225.032 150.943ZM341.738 153.04H340.738V154.04H341.738V153.04ZM341.738 122.766L340.894 122.23L340.738 122.476V122.766H341.738ZM417.643 3.18181V2.18181H417.094L416.799 2.64591L417.643 3.18181ZM443.744 3.18181H444.744V2.18181H443.744V3.18181ZM443.744 45.0852V46.0852H444.744V45.0852H443.744ZM428.297 45.0852V44.0852H427.746L427.451 44.551L428.297 45.0852ZM380.445 120.813L379.6 120.279L379.445 120.524V120.813H380.445ZM380.445 122.234H379.445V123.234H380.445V122.234ZM488.311 122.234H489.311V121.234H488.311V122.234ZM488.311 153.04V154.04H489.311V153.04H488.311ZM429.007 185H428.007V186H429.007V185ZM429.007 143.807L428.008 143.754L428.007 143.78V143.807H429.007ZM429.717 130.401L430.716 130.454L430.717 130.428V130.401H429.717ZM429.717 3.18181V2.18181H428.717V3.18181H429.717ZM465.761 3.18181H466.761V2.18181H465.761V3.18181ZM465.761 185V186H466.761V185H465.761ZM342.738 153.04V122.766H340.738V153.04H342.738ZM342.582 123.302L418.488 3.71772L416.799 2.64591L340.894 122.23L342.582 123.302ZM417.643 4.18181H443.744V2.18181H417.643V4.18181ZM442.744 3.18181V45.0852H444.744V3.18181H442.744ZM443.744 44.0852H428.297V46.0852H443.744V44.0852ZM427.451 44.551L379.6 120.279L381.291 121.347L429.142 45.6194L427.451 44.551ZM379.445 120.813V122.234H381.445V120.813H379.445ZM380.445 123.234H488.311V121.234H380.445V123.234ZM487.311 122.234V153.04H489.311V122.234H487.311ZM488.311 152.04H341.738V154.04H488.311V152.04ZM430.007 185V143.807H428.007V185H430.007ZM430.006 143.86L430.716 130.454L428.719 130.348L428.008 143.754L430.006 143.86ZM430.717 130.401V3.18181H428.717V130.401H430.717ZM429.717 4.18181H465.761V2.18181H429.717V4.18181ZM464.761 3.18181V185H466.761V3.18181H464.761ZM465.761 184H429.007V186H465.761V184Z" fill="#DADEFF"/>
</g>
<defs>
<filter id="filter0_b_974_37136" x="-9.51465" y="-9.3042" width="507.825" height="208.299" filterUnits="userSpaceOnUse" color-interpolation-filters="sRGB">
<feFlood flood-opacity="0" result="BackgroundImageFix"/>
<feGaussianBlur in="BackgroundImage" stdDeviation="5"/>
<feComposite in2="SourceAlpha" operator="in" result="effect1_backgroundBlur_974_37136"/>
<feBlend mode="normal" in="SourceGraphic" in2="effect1_backgroundBlur_974_37136" result="shape"/>
</filter>
<linearGradient id="paint0_linear_974_37136" x1="244" y1="-31" x2="244" y2="219" gradientUnits="userSpaceOnUse">
<stop stop-color="#F0F1FF"/>
<stop offset="1" stop-color="#DBE0FF"/>
</linearGradient>
</defs>
</svg>
